<svg width="792" height="120" viewBox="0 0 792 120" fill="none" xmlns="http://www.w3.org/2000/svg">
<path d="M11.375 17.25C13.875 17.5 15.9583 17.7083 17.625 17.875C19.375 18.0417 20.7917 18.1667 21.875 18.25C23.125 18.3333 24.125 18.375 24.875 18.375C25.625 18.4583 26.625 18.4583 27.875 18.375C28.9583 18.2917 30.375 18.2083 32.125 18.125C33.875 17.9583 36.0833 17.7083 38.75 17.375C38.1667 18.2083 37.7083 18.9583 37.375 19.625C37.0417 20.2083 36.75 20.75 36.5 21.25L35.75 22.75C35.5833 23.25 35.4167 23.75 35.25 24.25C35.0833 24.6667 34.9167 25.1667 34.75 25.75C34.6667 26.3333 34.5833 26.9583 34.5 27.625H53.75L52 37.75L34.375 36.75C33.9583 41 33.6667 44.2917 33.5 46.625C33.3333 48.9583 33.1667 50.6667 33 51.75L32.75 54C32.5 57.1667 32.25 60.625 32 64.375C31.75 68.0417 31.6667 71.4583 31.75 74.625C31.8333 77.7917 32.125 80.4583 32.625 82.625C33.125 84.7083 34 85.75 35.25 85.75C36.5 85.75 37.6667 85.4167 38.75 84.75C39.8333 84.0833 40.75 83.2917 41.5 82.375C42.3333 81.4583 42.9583 80.5417 43.375 79.625C43.7917 78.625 44 77.875 44 77.375C44 76.875 43.875 76.2917 43.625 75.625C43.2083 74.375 42.4583 72.7917 41.375 70.875C43.7917 71.4583 45.9167 72.0417 47.75 72.625C48.6667 72.9583 49.5 73.2917 50.25 73.625C51.0833 73.9583 52.0417 74.3333 53.125 74.75C54.0417 75.1667 55.2083 75.6667 56.625 76.25C58.0417 76.8333 59.7083 77.5417 61.625 78.375C59.7917 78.7083 58.4583 79.25 57.625 80C57.125 80.3333 56.75 80.7083 56.5 81.125C55.9167 82.0417 55.25 83.2917 54.5 84.875C53.75 86.375 52.625 87.875 51.125 89.375C49.625 90.875 47.5833 92.2083 45 93.375C42.5 94.5417 39.125 95.2083 34.875 95.375C30.4583 95.5417 27.0833 94.7917 24.75 93.125C22.5 91.4583 20.8333 89.5417 19.75 87.375C18.75 85.125 18.1667 82.9167 18 80.75C17.8333 78.5833 17.7083 77.125 17.625 76.375C17.5417 75.625 17.5417 73.75 17.625 70.75C17.7083 67.75 17.8333 64.4583 18 60.875C18.1667 57.2083 18.3333 53.7083 18.5 50.375C18.6667 46.9583 18.75 44.4583 18.75 42.875C18.75 42.0417 18.7917 41.1667 18.875 40.25C18.875 39.5 18.875 38.7083 18.875 37.875C18.9583 36.9583 19 36.0833 19 35.25L0.875 35.125L0.125 28L18.375 28.5C18.2083 27.5833 18 26.75 17.75 26C17.5833 25.1667 17.4167 24.5 17.25 24C17 23.4167 16.75 22.9167 16.5 22.5C16.1667 22.0833 15.7917 21.625 15.375 21.125C14.9583 20.7083 14.4167 20.1667 13.75 19.5C13.0833 18.8333 12.2917 18.0833 11.375 17.25ZM55.875 1.25C57.7917 1.58333 59.5417 1.83333 61.125 2C62.7083 2.08333 64.0417 2.16667 65.125 2.25C66.375 2.33333 67.4583 2.375 68.375 2.375C69.625 2.29167 71.0833 2.16667 72.75 2C74.1667 1.83333 75.875 1.625 77.875 1.375C79.9583 1.125 82.3333 0.791667 85 0.375C83.75 1.04167 82.7083 1.70833 81.875 2.375C81.0417 2.95833 80.375 3.58333 79.875 4.25C79.2917 5 78.8333 5.70833 78.5 6.375C78.0833 7.45833 77.625 9.70833 77.125 13.125C76.625 16.0417 76 20.375 75.25 26.125C74.5833 31.875 73.7083 39.6667 72.625 49.5C75.625 46.5 78.4583 44.25 81.125 42.75C83.875 41.1667 86.2917 40.0417 88.375 39.375C90.7917 38.625 93.0417 38.25 95.125 38.25C97.7083 38.5 100.333 39.3333 103 40.75C105.75 42.0833 108.292 43.6667 110.625 45.5C113.042 47.3333 115.125 49.2917 116.875 51.375C118.708 53.4583 120 55.2917 120.75 56.875C121.25 57.9583 121.5 59.375 121.5 61.125C121.5 62.7917 121.333 64.625 121 66.625C120.667 68.625 120.208 70.6667 119.625 72.75C119.042 74.8333 118.458 76.7917 117.875 78.625C117.375 80.4583 116.917 82.0833 116.5 83.5C116.083 84.8333 115.833 85.7917 115.75 86.375C115.583 87.625 115.667 88.8333 116 90C116.25 91 116.75 92.0833 117.5 93.25C118.25 94.3333 119.375 95.25 120.875 96C119.708 95.8333 118.458 95.7083 117.125 95.625C115.875 95.4583 114.667 95.3333 113.5 95.25C112.167 95.1667 110.833 95.125 109.5 95.125H105C103.583 95.125 101.958 95.1667 100.125 95.25C98.2917 95.25 96.2917 95.2917 94.125 95.375C95.2917 94.9583 96.2917 94.4167 97.125 93.75C97.9583 93 98.6667 92.2917 99.25 91.625C99.9167 90.875 100.5 90.0833 101 89.25C101.333 88.5833 101.75 87.3333 102.25 85.5C102.75 83.5833 103.208 81.4167 103.625 79C104.042 76.5 104.333 73.875 104.5 71.125C104.75 68.375 104.792 65.75 104.625 63.25C104.542 60.6667 104.167 58.375 103.5 56.375C102.917 54.375 102 52.9167 100.75 52C97 49.1667 93.5833 47.7917 90.5 47.875C87.5 47.875 84.625 49.0833 81.875 51.5C80.875 52.4167 79.9167 53.3333 79 54.25C78.1667 55.0833 77.25 56.0833 76.25 57.25C75.25 58.3333 74.3333 59.4583 73.5 60.625C73.5 61.875 73.5417 63.25 73.625 64.75C73.7083 66.25 73.7917 67.7083 73.875 69.125C73.9583 70.7083 74.0833 72.2917 74.25 73.875C74.4167 76.2917 74.6667 78.6667 75 81C75.25 83 75.5833 85.2083 76 87.625C76.4167 89.9583 76.9583 92.0833 77.625 94C76.5417 93.8333 75.4167 93.7917 74.25 93.875C73.0833 93.875 71.9583 93.875 70.875 93.875C69.625 93.9583 68.4167 94 67.25 94C66.1667 94.0833 65.0417 94.2083 63.875 94.375C62.875 94.5417 61.7917 94.7083 60.625 94.875C59.4583 94.9583 58.3333 95.125 57.25 95.375C58.25 93.4583 59.0833 91.5833 59.75 89.75C60.4167 87.8333 60.9583 86.1667 61.375 84.75C61.875 83.0833 62.2917 81.4583 62.625 79.875C62.875 78.625 63.0417 76.25 63.125 72.75C63.2917 69.1667 63.4167 65.0833 63.5 60.5C63.5833 55.8333 63.625 50.9167 63.625 45.75C63.625 40.5833 63.5833 35.6667 63.5 31C63.4167 26.3333 63.25 22.25 63 18.75C62.8333 15.25 62.625 12.8333 62.375 11.5C62.0417 10.1667 61.5833 8.83333 61 7.5C60.5 6.33333 59.8333 5.20833 59 4.125C58.1667 2.95833 57.125 2 55.875 1.25ZM160.25 75.875C162.583 75.875 164.75 75.625 166.75 75.125C168.417 74.7083 170 74.0417 171.5 73.125C173.083 72.125 174.125 70.6667 174.625 68.75C176.292 69.0833 177.708 69.375 178.875 69.625C180.042 69.7917 181.042 69.9583 181.875 70.125C182.792 70.375 183.583 70.5417 184.25 70.625C184.917 70.7917 185.708 70.9583 186.625 71.125C187.458 71.2917 188.458 71.5 189.625 71.75C190.875 71.9167 192.333 72.1667 194 72.5C192.75 72.3333 191.458 72.4583 190.125 72.875C188.875 73.2917 187.667 73.75 186.5 74.25C185.167 74.8333 183.917 75.5417 182.75 76.375C182 76.875 181.125 77.625 180.125 78.625C179.208 79.625 177.875 80.5833 176.125 81.5C174.375 82.4167 172.042 83.2083 169.125 83.875C166.292 84.4583 162.625 84.6667 158.125 84.5C152.708 84.3333 148.167 83.375 144.5 81.625C140.833 79.7917 137.875 77.5833 135.625 75C133.375 72.3333 131.75 69.4583 130.75 66.375C129.75 63.2917 129.208 60.4167 129.125 57.75C129.042 55.0833 129.833 52.2917 131.5 49.375C133.167 46.4583 135.5 43.7917 138.5 41.375C141.583 38.9583 145.292 37 149.625 35.5C153.958 33.9167 158.708 33.125 163.875 33.125C166.875 33.125 169.625 33.5 172.125 34.25C174.708 34.9167 177.042 35.8333 179.125 37C181.292 38.1667 183.167 39.5 184.75 41C186.333 42.4167 187.667 43.875 188.75 45.375C189.833 46.9583 190.75 48.625 191.5 50.375C192.167 51.875 192.708 53.5833 193.125 55.5C193.542 57.4167 193.667 59.375 193.5 61.375C187.167 61.5417 182.042 61.6667 178.125 61.75C174.292 61.8333 171.292 61.875 169.125 61.875H163.5H159.25C157.75 61.875 155.792 61.9167 153.375 62C150.958 62.0833 148 62.2083 144.5 62.375C144.917 65.7083 145.958 68.2917 147.625 70.125C149.375 71.875 151.208 73.2083 153.125 74.125C155.292 75.125 157.667 75.7083 160.25 75.875ZM149 53.375C151.667 53.5417 153.875 53.6667 155.625 53.75C157.458 53.8333 158.958 53.9167 160.125 54C161.375 54.0833 162.375 54.125 163.125 54.125H166.25C168.333 54.125 172.208 54 177.875 53.75C177.625 50.0833 176.833 47.2917 175.5 45.375C174.25 43.4583 172.917 42.0417 171.5 41.125C169.833 40.125 168 39.5417 166 39.375C160.583 39.4583 156.542 40.5833 153.875 42.75C151.292 44.9167 149.667 48.4583 149 53.375ZM201.375 99.5C202.208 98.25 202.875 97.0833 203.375 96C203.875 94.9167 204.292 94 204.625 93.25C204.958 92.3333 205.208 91.5 205.375 90.75C205.458 90.25 205.5 88.7917 205.5 86.375C205.5 83.9583 205.417 80.9167 205.25 77.25C205.167 73.5833 205.042 69.4583 204.875 64.875C204.792 60.2917 204.625 55.625 204.375 50.875C204.208 46.125 204 41.5 203.75 37C203.583 32.5 203.417 28.4583 203.25 24.875C203.083 21.2083 202.917 18.2083 202.75 15.875C202.583 13.5417 202.458 12.2083 202.375 11.875C202.208 11.375 201.917 10.875 201.5 10.375C200.667 9.375 199.25 8.41667 197.25 7.5C201.5 6.41667 204.75 5.54167 207 4.875C208.333 4.54167 209.5 4.20833 210.5 3.875C211.417 3.54167 212.333 3.20833 213.25 2.875C214 2.54167 214.833 2.16667 215.75 1.75C216.667 1.25 217.5 0.708333 218.25 0.125C217.833 2.54167 217.5 4.875 217.25 7.125C217 9.375 216.792 11.4583 216.625 13.375C216.458 15.5417 216.375 17.625 216.375 19.625C215.958 23.7083 215.708 28.1667 215.625 33C215.625 37.75 215.667 42.5833 215.75 47.5C215.833 52.4167 216 57.2083 216.25 61.875C216.5 66.5417 216.75 70.7917 217 74.625C217.333 78.375 217.625 81.5833 217.875 84.25C218.208 86.8333 218.458 88.5 218.625 89.25C218.958 90.5 219.292 91.7083 219.625 92.875C219.958 93.875 220.333 94.9167 220.75 96C221.167 97.1667 221.667 98.0833 222.25 98.75H210.125C209.042 98.75 208 98.7917 207 98.875C206.083 98.9583 205.125 99.0417 204.125 99.125C203.125 99.2083 202.208 99.3333 201.375 99.5ZM260.25 40C262.417 40 264.667 40.4167 267 41.25C269.333 42 271.583 43 273.75 44.25C275.917 45.4167 277.875 46.7083 279.625 48.125C281.458 49.4583 282.958 50.75 284.125 52C286.208 54.25 287.625 57.2917 288.375 61.125C289.208 64.875 289.375 68.75 288.875 72.75C288.375 76.6667 287.208 80.375 285.375 83.875C283.542 87.375 281 89.9583 277.75 91.625C275.417 92.7917 273.125 93.7083 270.875 94.375C268.625 95.0417 266.458 95.5417 264.375 95.875C262.292 96.2083 260.333 96.375 258.5 96.375C256.667 96.375 255.083 96.3333 253.75 96.25C251.25 96.0833 248.625 95.2083 245.875 93.625C243.208 92.0417 240.667 90.0833 238.25 87.75C235.917 85.4167 233.917 82.875 232.25 80.125C230.583 77.2917 229.583 74.625 229.25 72.125C228.75 68.7083 228.667 65.125 229 61.375C229.333 57.625 230.542 54.1667 232.625 51C234.792 47.8333 238.042 45.2083 242.375 43.125C246.792 41.0417 252.75 40 260.25 40ZM256.125 88.5C257.042 88.6667 258.292 88.4583 259.875 87.875C261.458 87.2083 263 86.1667 264.5 84.75C266.083 83.3333 267.458 81.5417 268.625 79.375C269.875 77.125 270.625 74.4167 270.875 71.25C271.125 68.1667 271.125 65.3333 270.875 62.75C270.708 60.1667 270.333 57.9167 269.75 56C269.167 54 268.5 52.375 267.75 51.125C267 49.875 266.208 49 265.375 48.5C263.958 47.75 262.25 47.1667 260.25 46.75C258.25 46.25 256.542 46.3333 255.125 47C254.458 47.3333 253.625 48.0417 252.625 49.125C251.625 50.2083 250.625 51.5833 249.625 53.25C248.625 54.8333 247.708 56.6667 246.875 58.75C246.125 60.8333 245.583 63 245.25 65.25C244.917 67.5 244.833 69.9167 245 72.5C245.25 75.0833 245.792 77.5417 246.625 79.875C247.458 82.125 248.625 84.0833 250.125 85.75C251.708 87.3333 253.708 88.25 256.125 88.5ZM364.75 51.625C363.75 51.4583 362.5 51.3333 361 51.25C359.583 51.1667 358.208 51.125 356.875 51.125C355.375 51.125 353.792 51.1667 352.125 51.25C350.375 51.3333 348.625 51.4167 346.875 51.5C345.375 51.5833 343.667 51.7083 341.75 51.875C339.917 51.9583 338.125 52.0833 336.375 52.25C337.042 51.9167 337.625 51.4583 338.125 50.875C338.708 50.2917 339.208 49.7083 339.625 49.125C340.042 48.4583 340.417 47.75 340.75 47C341.167 45.75 341.125 44.25 340.625 42.5C340.125 40.6667 339.208 39 337.875 37.5C336.625 36 335 34.8333 333 34C331.083 33.0833 328.958 32.875 326.625 33.375C324.125 33.9583 321.875 34.8333 319.875 36C317.958 37.1667 316.333 38.7917 315 40.875C313.75 42.875 312.833 45.375 312.25 48.375C311.75 51.2917 311.625 54.7917 311.875 58.875C312.208 63.9583 313.042 68 314.375 71C315.708 74 317.333 76.25 319.25 77.75C321.167 79.25 323.25 80.1667 325.5 80.5C327.833 80.75 330.125 80.75 332.375 80.5C333.958 80.1667 335.417 79.4583 336.75 78.375C337.833 77.4583 338.833 76.125 339.75 74.375C340.667 72.625 341.083 70.2083 341 67.125L356.25 66.5C354.5 71.4167 352.375 75.3333 349.875 78.25C347.375 81.0833 344.958 83.2917 342.625 84.875C339.875 86.7083 337.125 87.9583 334.375 88.625C330.958 89.2083 327.917 89.4583 325.25 89.375C322.583 89.2083 320.167 88.7917 318 88.125C315.833 87.4583 313.833 86.625 312 85.625C310.167 84.625 308.417 83.5417 306.75 82.375C305.667 81.625 304.458 80.375 303.125 78.625C301.792 76.875 300.542 74.7917 299.375 72.375C298.208 69.875 297.25 67.125 296.5 64.125C295.75 61.125 295.458 58.0417 295.625 54.875C295.792 51.625 296.542 48.375 297.875 45.125C299.208 41.875 301.333 38.75 304.25 35.75C308.667 31.25 313.375 28.3333 318.375 27C323.458 25.5833 328.25 25.2083 332.75 25.875C337.25 26.4583 341.25 27.75 344.75 29.75C348.25 31.75 350.708 33.9167 352.125 36.25C353.542 38.5833 354.583 40.375 355.25 41.625C356 42.7917 356.542 43.7083 356.875 44.375C357.292 44.9583 357.625 45.4167 357.875 45.75C358.208 46 358.667 46.375 359.25 46.875C359.667 47.2917 360.167 47.75 360.75 48.25C361.25 48.6667 361.833 49.1667 362.5 49.75C363.167 50.3333 363.917 50.9583 364.75 51.625ZM372.25 45.375C372.667 44.875 372.917 43.9583 373 42.625C373.167 41.2083 373.5 39.625 374 37.875C374.583 36.125 375.542 34.2917 376.875 32.375C378.208 30.4583 380.375 28.6667 383.375 27C386.292 25.3333 389.125 24.3333 391.875 24C394.625 23.6667 397.25 23.7917 399.75 24.375C402.25 24.9583 404.583 25.875 406.75 27.125C409 28.375 411.042 29.75 412.875 31.25C414.125 32.25 415.125 33.7083 415.875 35.625C416.625 37.4583 417.208 39.5417 417.625 41.875C418.042 44.2083 418.333 46.6667 418.5 49.25C418.75 51.75 418.917 54.2083 419 56.625C419.083 58.9583 419.125 61.125 419.125 63.125C419.208 65.0417 419.375 66.625 419.625 67.875C419.958 69.7083 420.542 71.2917 421.375 72.625C422.208 73.875 423.125 74.9583 424.125 75.875C425.125 76.7083 426.125 77.375 427.125 77.875C428.125 78.375 429 78.75 429.75 79C430.25 79.25 430.708 79.4167 431.125 79.5C431.958 79.8333 432.542 79.8333 432.875 79.5C432.375 80.6667 431.917 81.6667 431.5 82.5C431.083 83.3333 430.75 84.0417 430.5 84.625C430.167 85.2917 429.875 85.8333 429.625 86.25C429.375 86.75 429.083 87.2083 428.75 87.625C428.5 88.0417 428.167 88.5 427.75 89C427.333 89.5 426.917 90.0417 426.5 90.625C425.417 90.2083 424.375 89.7083 423.375 89.125C422.458 88.5417 421.625 88 420.875 87.5C419.958 86.9167 419.125 86.3333 418.375 85.75C417.625 85.1667 416.917 84.5 416.25 83.75C415.667 83.0833 415.042 82.375 414.375 81.625C413.792 80.875 413.292 80.0417 412.875 79.125C412.375 80.2083 411.167 81.75 409.25 83.75C407.417 85.75 405 87.5833 402 89.25C399 90.8333 395.5 91.9583 391.5 92.625C387.583 93.2917 383.25 92.8333 378.5 91.25C376.417 90.5833 374.458 89.625 372.625 88.375C370.792 87.0417 369.208 85.4583 367.875 83.625C366.625 81.7917 365.708 79.7083 365.125 77.375C364.625 74.9583 364.667 72.2917 365.25 69.375C365.833 66.4583 366.875 64 368.375 62C369.875 60 371.667 58.375 373.75 57.125C375.833 55.875 378.167 54.9167 380.75 54.25C383.333 53.5833 386 53.125 388.75 52.875C390.917 52.7917 393.083 52.9167 395.25 53.25C397.083 53.5833 399 54.2083 401 55.125C403 55.9583 404.708 57.25 406.125 59C406.042 54.5833 405.875 51.0833 405.625 48.5C405.458 45.8333 405.292 43.7917 405.125 42.375C404.792 40.7083 404.5 39.5417 404.25 38.875C403.833 38.2917 403.375 37.625 402.875 36.875C402.458 36.125 401.917 35.4583 401.25 34.875C400.583 34.2083 399.75 33.6667 398.75 33.25C397.75 32.8333 396.583 32.6667 395.25 32.75C393.833 32.8333 392.708 33.2083 391.875 33.875C391.042 34.5417 390.375 35.3333 389.875 36.25C389.458 37.0833 389.208 38 389.125 39C389.042 40 389.083 40.875 389.25 41.625C389.417 42.125 389.667 42.6667 390 43.25C390.333 43.75 390.792 44.2917 391.375 44.875C391.958 45.4583 392.75 45.9583 393.75 46.375C391.833 46.625 390.125 46.8333 388.625 47C387.125 47.0833 385.833 47.2083 384.75 47.375C383.5 47.5417 382.417 47.6667 381.5 47.75C380.583 47.8333 379.5 48 378.25 48.25C377.167 48.4167 375.833 48.625 374.25 48.875C372.667 49.125 370.833 49.4583 368.75 49.875C369.25 49.2917 369.708 48.75 370.125 48.25C370.542 47.6667 370.917 47.1667 371.25 46.75C371.583 46.25 371.917 45.7917 372.25 45.375ZM391 60.25C389.5 60.3333 388 60.7083 386.5 61.375C385 61.9583 383.667 62.8333 382.5 64C381.333 65.0833 380.333 66.375 379.5 67.875C378.75 69.2917 378.375 70.875 378.375 72.625C378.375 74.375 378.792 75.9167 379.625 77.25C380.542 78.5 381.708 79.5417 383.125 80.375C384.625 81.2083 386.208 81.7083 387.875 81.875C389.625 82.0417 391.333 81.875 393 81.375C394.583 80.7917 396.083 79.875 397.5 78.625C398.917 77.2917 400.125 75.875 401.125 74.375C402.125 72.7917 402.833 71.25 403.25 69.75C403.667 68.1667 403.708 66.875 403.375 65.875C402.708 63.7083 401.208 62.2083 398.875 61.375C396.542 60.4583 393.917 60.0833 391 60.25ZM434.5 99.5C435.333 98.25 436 97.0833 436.5 96C437 94.9167 437.417 94 437.75 93.25C438.083 92.3333 438.333 91.5 438.5 90.75C438.583 90.25 438.625 88.7917 438.625 86.375C438.625 83.9583 438.542 80.9167 438.375 77.25C438.292 73.5833 438.167 69.4583 438 64.875C437.917 60.2917 437.75 55.625 437.5 50.875C437.333 46.125 437.125 41.5 436.875 37C436.708 32.5 436.542 28.4583 436.375 24.875C436.208 21.2083 436.042 18.2083 435.875 15.875C435.708 13.5417 435.583 12.2083 435.5 11.875C435.333 11.375 435.042 10.875 434.625 10.375C433.792 9.375 432.375 8.41667 430.375 7.5C434.625 6.41667 437.875 5.54167 440.125 4.875C441.458 4.54167 442.625 4.20833 443.625 3.875C444.542 3.54167 445.458 3.20833 446.375 2.875C447.125 2.54167 447.958 2.16667 448.875 1.75C449.792 1.25 450.625 0.708333 451.375 0.125C450.958 2.54167 450.625 4.875 450.375 7.125C450.125 9.375 449.917 11.4583 449.75 13.375C449.583 15.5417 449.5 17.625 449.5 19.625C449.083 23.7083 448.833 28.1667 448.75 33C448.75 37.75 448.792 42.5833 448.875 47.5C448.958 52.4167 449.125 57.2083 449.375 61.875C449.625 66.5417 449.875 70.7917 450.125 74.625C450.458 78.375 450.75 81.5833 451 84.25C451.333 86.8333 451.583 88.5 451.75 89.25C452.083 90.5 452.417 91.7083 452.75 92.875C453.083 93.875 453.458 94.9167 453.875 96C454.292 97.1667 454.792 98.0833 455.375 98.75H443.25C442.167 98.75 441.125 98.7917 440.125 98.875C439.208 98.9583 438.25 99.0417 437.25 99.125C436.25 99.2083 435.333 99.3333 434.5 99.5ZM459.875 8.25C461.792 8.75 463.542 9.125 465.125 9.375C466.792 9.54167 468.208 9.66667 469.375 9.75C470.792 9.83333 472.083 9.875 473.25 9.875C474.417 9.875 475.875 9.79167 477.625 9.625C480.708 9.375 485.083 8.75 490.75 7.75C489.833 8.41667 488.958 9.08333 488.125 9.75C487.375 10.3333 486.708 10.9167 486.125 11.5L484.25 13.375C483.167 14.875 482.083 17.4167 481 21C480.083 24.0833 479.083 28.4167 478 34C477 39.5833 476.083 47 475.25 56.25C479.333 52.25 483.167 49.25 486.75 47.25C490.417 45.1667 493.625 43.6667 496.375 42.75C499.625 41.75 502.583 41.2083 505.25 41.125C508.667 41.375 511.625 42.0833 514.125 43.25C516.708 44.3333 518.875 45.6667 520.625 47.25C522.458 48.75 523.917 50.3333 525 52C526.167 53.5833 527.042 55 527.625 56.25C527.958 57.0833 528.208 58.625 528.375 60.875C528.625 63.0417 528.667 65.5417 528.5 68.375C528.333 71.2083 527.875 74.2083 527.125 77.375C526.458 80.4583 525.333 83.3333 523.75 86C522.25 88.5833 520.25 90.75 517.75 92.5C515.333 94.25 512.292 95.2083 508.625 95.375C504.375 95.375 500.25 94.875 496.25 93.875C492.833 93.0417 489.208 91.5833 485.375 89.5C481.625 87.3333 478.417 84.25 475.75 80.25C475.75 81.25 475.75 82.25 475.75 83.25C475.75 84.1667 475.792 84.9583 475.875 85.625C475.958 86.5417 476.042 87.3333 476.125 88C476.208 88.75 476.417 89.5417 476.75 90.375C477 91.0417 477.375 91.875 477.875 92.875C478.458 93.7917 479.208 94.7083 480.125 95.625C479.208 95.5417 478.292 95.5 477.375 95.5C476.458 95.4167 475.542 95.4167 474.625 95.5C473.625 95.5833 472.625 95.6667 471.625 95.75C470.625 95.8333 469.583 95.9583 468.5 96.125C467.583 96.2917 466.5 96.5 465.25 96.75C464 97 462.708 97.2917 461.375 97.625C461.625 96.875 461.833 95.7917 462 94.375C462.167 92.875 462.333 91.25 462.5 89.5C462.75 87.6667 462.917 85.75 463 83.75C463.167 81.75 463.333 79.75 463.5 77.75C463.833 73.1667 464.125 68.1667 464.375 62.75C464.625 54.3333 464.667 46.5 464.5 39.25C464.417 36.1667 464.25 33.0417 464 29.875C463.833 26.7083 463.583 23.75 463.25 21C462.917 18.1667 462.458 15.6667 461.875 13.5C461.375 11.25 460.708 9.5 459.875 8.25ZM476.125 69.125C477.458 71.5417 478.875 73.625 480.375 75.375C481.875 77.0417 483.375 78.4583 484.875 79.625C486.375 80.7917 487.833 81.7083 489.25 82.375C490.75 83.0417 492.167 83.5417 493.5 83.875C496.583 84.7083 499.625 84.7917 502.625 84.125C505.625 83.2917 507.958 81.625 509.625 79.125C511.292 76.625 512.583 73.7917 513.5 70.625C513.917 69.125 514.167 67.2083 514.25 64.875C514.417 62.5417 514.167 60.2917 513.5 58.125C512.917 55.875 511.833 53.9167 510.25 52.25C508.667 50.5 506.375 49.4583 503.375 49.125C501.292 49.125 498.875 49.7083 496.125 50.875C493.708 51.875 490.833 53.5417 487.5 55.875C484.167 58.125 480.375 61.5 476.125 66V69.125ZM537.25 99.5C538.083 98.25 538.75 97.0833 539.25 96C539.75 94.9167 540.167 94 540.5 93.25C540.833 92.3333 541.083 91.5 541.25 90.75C541.333 90.25 541.375 88.7917 541.375 86.375C541.375 83.9583 541.292 80.9167 541.125 77.25C541.042 73.5833 540.917 69.4583 540.75 64.875C540.667 60.2917 540.5 55.625 540.25 50.875C540.083 46.125 539.875 41.5 539.625 37C539.458 32.5 539.292 28.4583 539.125 24.875C538.958 21.2083 538.792 18.2083 538.625 15.875C538.458 13.5417 538.333 12.2083 538.25 11.875C538.083 11.375 537.792 10.875 537.375 10.375C536.542 9.375 535.125 8.41667 533.125 7.5C537.375 6.41667 540.625 5.54167 542.875 4.875C544.208 4.54167 545.375 4.20833 546.375 3.875C547.292 3.54167 548.208 3.20833 549.125 2.875C549.875 2.54167 550.708 2.16667 551.625 1.75C552.542 1.25 553.375 0.708333 554.125 0.125C553.708 2.54167 553.375 4.875 553.125 7.125C552.875 9.375 552.667 11.4583 552.5 13.375C552.333 15.5417 552.25 17.625 552.25 19.625C551.833 23.7083 551.583 28.1667 551.5 33C551.5 37.75 551.542 42.5833 551.625 47.5C551.708 52.4167 551.875 57.2083 552.125 61.875C552.375 66.5417 552.625 70.7917 552.875 74.625C553.208 78.375 553.5 81.5833 553.75 84.25C554.083 86.8333 554.333 88.5 554.5 89.25C554.833 90.5 555.167 91.7083 555.5 92.875C555.833 93.875 556.208 94.9167 556.625 96C557.042 97.1667 557.542 98.0833 558.125 98.75H546C544.917 98.75 543.875 98.7917 542.875 98.875C541.958 98.9583 541 99.0417 540 99.125C539 99.2083 538.083 99.3333 537.25 99.5ZM596.125 40C598.292 40 600.542 40.4167 602.875 41.25C605.208 42 607.458 43 609.625 44.25C611.792 45.4167 613.75 46.7083 615.5 48.125C617.333 49.4583 618.833 50.75 620 52C622.083 54.25 623.5 57.2917 624.25 61.125C625.083 64.875 625.25 68.75 624.75 72.75C624.25 76.6667 623.083 80.375 621.25 83.875C619.417 87.375 616.875 89.9583 613.625 91.625C611.292 92.7917 609 93.7083 606.75 94.375C604.5 95.0417 602.333 95.5417 600.25 95.875C598.167 96.2083 596.208 96.375 594.375 96.375C592.542 96.375 590.958 96.3333 589.625 96.25C587.125 96.0833 584.5 95.2083 581.75 93.625C579.083 92.0417 576.542 90.0833 574.125 87.75C571.792 85.4167 569.792 82.875 568.125 80.125C566.458 77.2917 565.458 74.625 565.125 72.125C564.625 68.7083 564.542 65.125 564.875 61.375C565.208 57.625 566.417 54.1667 568.5 51C570.667 47.8333 573.917 45.2083 578.25 43.125C582.667 41.0417 588.625 40 596.125 40ZM592 88.5C592.917 88.6667 594.167 88.4583 595.75 87.875C597.333 87.2083 598.875 86.1667 600.375 84.75C601.958 83.3333 603.333 81.5417 604.5 79.375C605.75 77.125 606.5 74.4167 606.75 71.25C607 68.1667 607 65.3333 606.75 62.75C606.583 60.1667 606.208 57.9167 605.625 56C605.042 54 604.375 52.375 603.625 51.125C602.875 49.875 602.083 49 601.25 48.5C599.833 47.75 598.125 47.1667 596.125 46.75C594.125 46.25 592.417 46.3333 591 47C590.333 47.3333 589.5 48.0417 588.5 49.125C587.5 50.2083 586.5 51.5833 585.5 53.25C584.5 54.8333 583.583 56.6667 582.75 58.75C582 60.8333 581.458 63 581.125 65.25C580.792 67.5 580.708 69.9167 580.875 72.5C581.125 75.0833 581.667 77.5417 582.5 79.875C583.333 82.125 584.5 84.0833 586 85.75C587.583 87.3333 589.583 88.25 592 88.5ZM689.75 43C689.5 41.3333 689.292 39.9583 689.125 38.875C688.958 37.7083 688.792 36.7917 688.625 36.125C688.458 35.2917 688.333 34.6667 688.25 34.25C688.083 33.8333 687.875 33.375 687.625 32.875C687.458 32.4583 687.167 31.9583 686.75 31.375C686.417 30.7917 686 30.125 685.5 29.375C686.583 29.7083 687.667 29.9167 688.75 30C689.917 30.0833 691 30.1667 692 30.25C693.083 30.3333 694.208 30.3333 695.375 30.25C696.542 30.25 697.875 30.2083 699.375 30.125C700.708 30.0417 702.292 30 704.125 30C706.042 29.9167 708.208 29.7917 710.625 29.625C709.208 29.9583 708 30.5417 707 31.375C706.083 32.125 705.292 32.9583 704.625 33.875C703.875 34.875 703.25 35.9583 702.75 37.125C702.333 38.2083 702.083 40.2917 702 43.375C701.917 46.375 701.917 49.9583 702 54.125C702.083 58.2083 702.167 62.625 702.25 67.375C702.417 72.125 702.5 76.6667 702.5 81C702.583 85.3333 702.583 89.2917 702.5 92.875C702.417 96.375 702.208 98.9583 701.875 100.625C700.708 105.875 698.542 110.125 695.375 113.375C692.208 116.708 688.042 118.5 682.875 118.75C676.625 119 671.667 118.417 668 117C664.417 115.583 661.625 113.833 659.625 111.75C657.625 109.75 656.125 107.708 655.125 105.625C654.125 103.542 653.083 101.958 652 100.875C651 99.9583 650 99.0833 649 98.25C648.083 97.5833 647.125 96.9167 646.125 96.25C645.208 95.5833 644.292 95.1667 643.375 95C645.792 95.0833 647.958 95.125 649.875 95.125C651.792 95.125 653.417 95.125 654.75 95.125C656.25 95.125 657.583 95.0833 658.75 95H662.75H674.125C672.458 95.5 671.208 96.0417 670.375 96.625C669.542 97.2917 668.958 97.9583 668.625 98.625C668.292 99.375 668.125 100.125 668.125 100.875C668.458 102.875 669.542 104.333 671.375 105.25C673.208 106.167 675.708 106.708 678.875 106.875C681.958 107.042 684.083 106.958 685.25 106.625C686.417 106.375 687.333 105.875 688 105.125C689.333 103.125 690.458 100.542 691.375 97.375C692.042 94.7083 692.5 91.25 692.75 87C693.083 82.6667 692.708 77.375 691.625 71.125C688.958 74.7917 685.875 77.5417 682.375 79.375C678.875 81.2083 675.542 82.5417 672.375 83.375C668.625 84.2917 664.833 84.75 661 84.75C650.917 84.3333 643.375 82 638.375 77.75C633.375 73.5 631.083 67.7917 631.5 60.625C631.75 57.0417 632.833 53.4583 634.75 49.875C636.75 46.2917 639.333 43.0833 642.5 40.25C645.75 37.4167 649.458 35.1667 653.625 33.5C657.792 31.8333 662.125 31.125 666.625 31.375C670.042 31.7083 673.25 32.3333 676.25 33.25C678.833 34.0833 681.375 35.25 683.875 36.75C686.458 38.25 688.417 40.3333 689.75 43ZM650 55.5C649.5 58.75 649.708 61.7917 650.625 64.625C651.625 67.4583 653 69.9167 654.75 72C656.5 74 658.458 75.5833 660.625 76.75C662.792 77.8333 664.833 78.3333 666.75 78.25C670.75 78.1667 674.208 76.375 677.125 72.875C680.042 69.2917 681.792 63.9583 682.375 56.875C682.625 53.375 682.167 50.375 681 47.875C679.917 45.2917 678.542 43.2083 676.875 41.625C675.208 40.0417 673.458 38.9167 671.625 38.25C669.792 37.5833 668.333 37.2917 667.25 37.375C665.75 37.5417 664.083 38 662.25 38.75C660.5 39.4167 658.792 40.4583 657.125 41.875C655.458 43.2083 653.958 45 652.625 47.25C651.375 49.5 650.5 52.25 650 55.5ZM770.75 43C770.5 41.3333 770.292 39.9583 770.125 38.875C769.958 37.7083 769.792 36.7917 769.625 36.125C769.458 35.2917 769.333 34.6667 769.25 34.25C769.083 33.8333 768.875 33.375 768.625 32.875C768.458 32.4583 768.167 31.9583 767.75 31.375C767.417 30.7917 767 30.125 766.5 29.375C767.583 29.7083 768.667 29.9167 769.75 30C770.917 30.0833 772 30.1667 773 30.25C774.083 30.3333 775.208 30.3333 776.375 30.25C777.542 30.25 778.875 30.2083 780.375 30.125C781.708 30.0417 783.292 30 785.125 30C787.042 29.9167 789.208 29.7917 791.625 29.625C790.208 29.9583 789 30.5417 788 31.375C787.083 32.125 786.292 32.9583 785.625 33.875C784.875 34.875 784.25 35.9583 783.75 37.125C783.333 38.2083 783.083 40.2917 783 43.375C782.917 46.375 782.917 49.9583 783 54.125C783.083 58.2083 783.167 62.625 783.25 67.375C783.417 72.125 783.5 76.6667 783.5 81C783.583 85.3333 783.583 89.2917 783.5 92.875C783.417 96.375 783.208 98.9583 782.875 100.625C781.708 105.875 779.542 110.125 776.375 113.375C773.208 116.708 769.042 118.5 763.875 118.75C757.625 119 752.667 118.417 749 117C745.417 115.583 742.625 113.833 740.625 111.75C738.625 109.75 737.125 107.708 736.125 105.625C735.125 103.542 734.083 101.958 733 100.875C732 99.9583 731 99.0833 730 98.25C729.083 97.5833 728.125 96.9167 727.125 96.25C726.208 95.5833 725.292 95.1667 724.375 95C726.792 95.0833 728.958 95.125 730.875 95.125C732.792 95.125 734.417 95.125 735.75 95.125C737.25 95.125 738.583 95.0833 739.75 95H743.75H755.125C753.458 95.5 752.208 96.0417 751.375 96.625C750.542 97.2917 749.958 97.9583 749.625 98.625C749.292 99.375 749.125 100.125 749.125 100.875C749.458 102.875 750.542 104.333 752.375 105.25C754.208 106.167 756.708 106.708 759.875 106.875C762.958 107.042 765.083 106.958 766.25 106.625C767.417 106.375 768.333 105.875 769 105.125C770.333 103.125 771.458 100.542 772.375 97.375C773.042 94.7083 773.5 91.25 773.75 87C774.083 82.6667 773.708 77.375 772.625 71.125C769.958 74.7917 766.875 77.5417 763.375 79.375C759.875 81.2083 756.542 82.5417 753.375 83.375C749.625 84.2917 745.833 84.75 742 84.75C731.917 84.3333 724.375 82 719.375 77.75C714.375 73.5 712.083 67.7917 712.5 60.625C712.75 57.0417 713.833 53.4583 715.75 49.875C717.75 46.2917 720.333 43.0833 723.5 40.25C726.75 37.4167 730.458 35.1667 734.625 33.5C738.792 31.8333 743.125 31.125 747.625 31.375C751.042 31.7083 754.25 32.3333 757.25 33.25C759.833 34.0833 762.375 35.25 764.875 36.75C767.458 38.25 769.417 40.3333 770.75 43ZM731 55.5C730.5 58.75 730.708 61.7917 731.625 64.625C732.625 67.4583 734 69.9167 735.75 72C737.5 74 739.458 75.5833 741.625 76.75C743.792 77.8333 745.833 78.3333 747.75 78.25C751.75 78.1667 755.208 76.375 758.125 72.875C761.042 69.2917 762.792 63.9583 763.375 56.875C763.625 53.375 763.167 50.375 762 47.875C760.917 45.2917 759.542 43.2083 757.875 41.625C756.208 40.0417 754.458 38.9167 752.625 38.25C750.792 37.5833 749.333 37.2917 748.25 37.375C746.75 37.5417 745.083 38 743.25 38.75C741.5 39.4167 739.792 40.4583 738.125 41.875C736.458 43.2083 734.958 45 733.625 47.25C732.375 49.5 731.5 52.25 731 55.5Z" fill="white"/>
</svg>
